<svg xmlns="http://www.w3.org/2000/svg" width="20.943" height="21.519" viewBox="0 0 20.943 21.519">
  <g id="Bar-chart" transform="translate(0)">
    <path id="Path_66" data-name="Path 66" d="M133.06,152.815a.547.547,0,0,1-.547.547h-4.944a.547.547,0,0,1-.547-.547V138a.547.547,0,0,1,.547-.547h4.944a.547.547,0,0,1,.547.547Z" transform="translate(-127.022 -131.892)" fill="#636b80"/>
    <path id="Path_67" data-name="Path 67" d="M290.871,40.264a.547.547,0,0,1-.547.547h-4.944a.547.547,0,0,1-.547-.547V19.888a.547.547,0,0,1,.547-.547h4.944a.547.547,0,0,1,.547.547Z" transform="translate(-277.404 -19.341)" fill="#636b80"/>
    <path id="Path_68" data-name="Path 68" d="M449.7,218.844a.547.547,0,0,1-.547.547h-4.944a.547.547,0,0,1-.547-.547V207.238a.547.547,0,0,1,.547-.547h4.944a.547.547,0,0,1,.547.547Z" transform="translate(-428.758 -197.873)" fill="#636b80"/>
  </g>
</svg>
