<svg id="Bar-chart" xmlns="http://www.w3.org/2000/svg" width="19.846" height="20.391" viewBox="0 0 19.846 20.391">
  <g id="Path_66" data-name="Path 66" transform="translate(-127.022 -132.183)" fill="none">
    <path d="M132.744,152.01a.519.519,0,0,1-.519.519h-4.685a.519.519,0,0,1-.519-.519V137.97a.519.519,0,0,1,.519-.519h4.685a.519.519,0,0,1,.519.519Z" stroke="none"/>
    <path d="M 131.3440551757812 151.1284484863281 L 131.3444519042969 138.8509826660156 L 128.4219970703125 138.8509826660156 L 128.4219970703125 151.1284484863281 L 131.3440551757812 151.1284484863281 M 132.225341796875 152.5284423828125 L 127.5407028198242 152.5284423828125 C 127.2540893554688 152.5284423828125 127.0220031738281 152.2962188720703 127.0220031738281 152.009765625 L 127.0220031738281 137.9696807861328 C 127.0220031738281 137.6832427978516 127.2540893554688 137.4509887695312 127.5407028198242 137.4509887695312 L 132.2257995605469 137.4509887695312 C 132.5122375488281 137.4509887695312 132.7444763183594 137.6832427978516 132.7444763183594 137.9696807861328 L 132.7440338134766 152.009765625 C 132.7440338134766 152.2961883544922 132.5117645263672 152.5284423828125 132.225341796875 152.5284423828125 Z" stroke="none" fill="#b2b7c4"/>
  </g>
  <g id="Path_67" data-name="Path 67" transform="translate(-277.793 -19.341)" fill="none">
    <path d="M290.555,39.168a.519.519,0,0,1-.519.519h-4.685a.519.519,0,0,1-.519-.519V19.86a.519.519,0,0,1,.519-.519h4.685a.519.519,0,0,1,.519.519Z" stroke="none"/>
    <path d="M 289.1545104980469 38.28647613525391 L 289.1545104980469 20.74097442626953 L 286.2319946289062 20.74097442626953 L 286.2319946289062 38.28647613525391 L 289.1545104980469 38.28647613525391 M 290.0357971191406 39.68647384643555 L 285.3507080078125 39.68647384643555 C 285.0643005371094 39.68647384643555 284.8320007324219 39.4542236328125 284.8320007324219 39.16778564453125 L 284.8320007324219 19.85965538024902 C 284.8320007324219 19.57321548461914 285.0643005371094 19.34097480773926 285.3507080078125 19.34097480773926 L 290.0357971191406 19.34097480773926 C 290.322265625 19.34097480773926 290.5545043945312 19.57321548461914 290.5545043945312 19.85965538024902 L 290.5545043945312 39.16778564453125 C 290.5545043945312 39.4542236328125 290.322265625 39.68647384643555 290.0357971191406 39.68647384643555 Z" stroke="none" fill="#b2b7c4"/>
  </g>
  <g id="Path_68" data-name="Path 68" transform="translate(-429.539 -198.335)" fill="none">
    <path d="M449.384,218.207a.519.519,0,0,1-.519.519h-4.685a.519.519,0,0,1-.519-.519v-11a.519.519,0,0,1,.519-.519h4.685a.519.519,0,0,1,.519.519Z" stroke="none"/>
    <path d="M 447.9844665527344 217.3256530761719 L 447.9844665527344 208.0910034179688 L 445.0619812011719 208.0910034179688 L 445.0619812011719 217.3256530761719 L 447.9844665527344 217.3256530761719 M 448.8657836914062 218.7256622314453 L 444.1806640625 218.7256622314453 C 443.894287109375 218.7256622314453 443.6619873046875 218.4933929443359 443.6619873046875 218.2069549560547 L 443.6619873046875 207.2096710205078 C 443.6619873046875 206.9232330322266 443.894287109375 206.6909942626953 444.1806640625 206.6909942626953 L 448.8657836914062 206.6909942626953 C 449.1522216796875 206.6909942626953 449.3844604492188 206.9232330322266 449.3844604492188 207.2096710205078 L 449.3844604492188 218.2069549560547 C 449.3844604492188 218.4933929443359 449.1522216796875 218.7256622314453 448.8657836914062 218.7256622314453 Z" stroke="none" fill="#b2b7c4"/>
  </g>
</svg>
