<svg xmlns="http://www.w3.org/2000/svg" width="41" height="27.22" viewBox="0 0 41 27.22">
  <g id="Column" transform="translate(-128 -239)">
    <g id="Path_71" data-name="Path 71" transform="translate(128 239)" fill="#fff">
      <path d="M 40.5 26.72009658813477 L 0.5 26.72009658813477 L 0.5 0.4999963939189911 L 40.5 0.4999963939189911 L 40.5 26.72009658813477 Z" stroke="none"/>
      <path d="M 1 0.9999961853027344 L 1 26.22009658813477 L 40 26.22009658813477 L 40 0.9999961853027344 L 1 0.9999961853027344 M 0 -3.814697265625e-06 L 41 -3.814697265625e-06 L 41 27.22009658813477 L 0 27.22009658813477 L 0 -3.814697265625e-06 Z" stroke="none" fill="#c5c5c9"/>
    </g>
    <g id="Group_45" data-name="Group 45" transform="translate(138.5 239.5)">
      <line id="Line_22" data-name="Line 22" y2="26.72" fill="none" stroke="#c5c5c9" stroke-width="1"/>
      <line id="Line_23" data-name="Line 23" y2="26.72" transform="translate(10)" fill="none" stroke="#c5c5c9" stroke-width="1"/>
      <line id="Line_24" data-name="Line 24" y2="26.72" transform="translate(20)" fill="none" stroke="#c5c5c9" stroke-width="1"/>
    </g>
    <line id="Line_23-2" data-name="Line 23" y2="40" transform="translate(168 252.61) rotate(90)" fill="none" stroke="#c5c5c9" stroke-width="1" opacity="0"/>
    <line id="Line_24-2" data-name="Line 24" y2="40" transform="translate(168 259.635) rotate(90)" fill="none" stroke="#c5c5c9" stroke-width="1" opacity="0"/>
    <line id="Line_26" data-name="Line 26" y2="40" transform="translate(168 245.586) rotate(90)" fill="none" stroke="#c5c5c9" stroke-width="1" opacity="0"/>
    <rect id="Rectangle_95" data-name="Rectangle 95" width="11" height="26" transform="translate(138 240.22)" fill="#2e89ff" opacity="0.2"/>
  </g>
</svg>
