<svg id="Dashboard_Highlight" data-name="Dashboard Highlight" xmlns="http://www.w3.org/2000/svg" width="19.774" height="12.771" viewBox="0 0 19.774 12.771">
  <path id="Path_32" data-name="Path 32" d="M120.874,129.34h-4.12v-.824h3.3V128.1a9.063,9.063,0,1,0-18.126,0v.412h3.3v.824H101.1V128.1a9.887,9.887,0,1,1,19.773,0Z" transform="translate(-101.1 -118.217)" fill="#fff"/>
  <path id="Path_33" data-name="Path 33" d="M300.33,275.3a2.181,2.181,0,0,1-.939-4.148l5.561-2.653-2.653,5.561a2.19,2.19,0,0,1-1.969,1.24Zm2.875-5.055-3.46,1.652a1.356,1.356,0,1,0,1.808,1.808Z" transform="translate(-290.324 -262.526)" fill="#fff"/>
</svg>
