<svg width="19" height="16" viewBox="0 0 19 16" fill="none" xmlns="http://www.w3.org/2000/svg">
<g clip-path="url(#clip0_324_33)">
<path d="M16.836 15.795H2.03605C1.49578 15.7942 0.977868 15.5792 0.59584 15.1972C0.213813 14.8152 -0.00115959 14.2973 -0.00195312 13.757V2.038C-0.00115959 1.49773 0.213813 0.979821 0.59584 0.597794C0.977868 0.215766 1.49578 0.00079354 2.03605 0H16.836C17.3763 0.00079354 17.8942 0.215766 18.2763 0.597794C18.6583 0.979821 18.8733 1.49773 18.874 2.038V13.757C18.8733 14.2973 18.6583 14.8152 18.2763 15.1972C17.8942 15.5792 17.3763 15.7942 16.836 15.795ZM2.03605 0.86C1.72371 0.860264 1.42423 0.984461 1.20337 1.20532C0.982509 1.42618 0.858312 1.72566 0.858047 2.038V13.757C0.858312 14.0693 0.982509 14.3688 1.20337 14.5897C1.42423 14.8105 1.72371 14.9347 2.03605 14.935H16.836C17.148 14.9342 17.447 14.8098 17.6674 14.589C17.8879 14.3682 18.0118 14.069 18.012 13.757V2.039C18.0118 1.72666 17.8876 1.42718 17.6667 1.20632C17.4459 0.98546 17.1464 0.861266 16.834 0.861001L2.03605 0.86Z" fill="#2E89FF"/>
<path d="M7.04913 9.778C6.93509 9.778 6.82573 9.73269 6.74509 9.65205C6.66445 9.57141 6.61914 9.46205 6.61914 9.34801V3.83101C6.61903 3.75548 6.63882 3.68124 6.67651 3.61578C6.71421 3.55033 6.76848 3.49597 6.83386 3.45816C6.89925 3.42035 6.97345 3.40042 7.04898 3.40039C7.12451 3.40036 7.19872 3.42024 7.26413 3.45801L12.0421 6.21701C12.1075 6.25474 12.1619 6.30901 12.1996 6.3744C12.2374 6.4398 12.2573 6.51399 12.2573 6.58951C12.2573 6.66503 12.2374 6.73921 12.1996 6.8046C12.1619 6.86999 12.1075 6.92428 12.0421 6.96201L7.26413 9.72101C7.19882 9.75893 7.12466 9.77894 7.04913 9.77901V9.778ZM7.47913 4.578V8.608L10.9671 6.59401L7.47913 4.578Z" fill="#2E89FF"/>
<path d="M18.0977 12.0176H0.513672V12.8656H18.0977V12.0176Z" fill="#2E89FF"/>
</g>
<defs>
<clipPath id="clip0_324_33">
<rect width="18.875" height="15.795" fill="white"/>
</clipPath>
</defs>
</svg>
