<svg width="18" height="17" viewBox="0 0 18 17" fill="none" xmlns="http://www.w3.org/2000/svg">
<g clip-path="url(#clip0_324_29)">
<path d="M12.0798 4.26612H4.02681C3.86263 4.27264 3.70734 4.34244 3.59348 4.4609C3.47962 4.57937 3.41602 4.73731 3.41602 4.90162C3.41602 5.06594 3.47962 5.22388 3.59348 5.34234C3.70734 5.46081 3.86263 5.53061 4.02681 5.53712H12.0798C12.1654 5.54052 12.2508 5.52659 12.3308 5.49618C12.4109 5.46577 12.484 5.41951 12.5457 5.36016C12.6075 5.30082 12.6566 5.22962 12.6902 5.15083C12.7237 5.07203 12.741 4.98727 12.741 4.90162C12.741 4.81598 12.7237 4.73121 12.6902 4.65242C12.6566 4.57362 12.6075 4.50243 12.5457 4.44308C12.484 4.38373 12.4109 4.33747 12.3308 4.30706C12.2508 4.27666 12.1654 4.26273 12.0798 4.26612Z" fill="#2E89FF"/>
<path d="M4.02644 7.75636H9.53644C9.62201 7.75296 9.7074 7.76689 9.78746 7.7973C9.86752 7.82771 9.94062 7.87397 10.0024 7.93332C10.0641 7.99266 10.1132 8.06386 10.1468 8.14265C10.1804 8.22145 10.1977 8.30621 10.1977 8.39186C10.1977 8.4775 10.1804 8.56227 10.1468 8.64106C10.1132 8.71986 10.0641 8.79105 10.0024 8.8504C9.94062 8.90975 9.86752 8.95601 9.78746 8.98642C9.7074 9.01682 9.62201 9.03075 9.53644 9.02736H4.02644C3.94087 9.03075 3.85548 9.01682 3.77542 8.98642C3.69536 8.95601 3.62226 8.90975 3.56052 8.8504C3.49877 8.79105 3.44963 8.71986 3.41608 8.64106C3.38252 8.56227 3.36523 8.4775 3.36523 8.39186C3.36523 8.30621 3.38252 8.22145 3.41608 8.14265C3.44963 8.06386 3.49877 7.99266 3.56052 7.93332C3.62226 7.87397 3.69536 7.82771 3.77542 7.7973C3.85548 7.76689 3.94087 7.75296 4.02644 7.75636Z" fill="#2E89FF"/>
<path fill-rule="evenodd" clip-rule="evenodd" d="M16.272 0.000976562H1.55101C1.13982 0.00150576 0.745629 0.165087 0.454875 0.455841C0.164121 0.746595 0.000539563 1.14079 1.03625e-05 1.55198V15.927C-0.00063853 16.0289 0.029201 16.1287 0.0856885 16.2135C0.142176 16.2983 0.222732 16.3643 0.317012 16.403C0.380306 16.4298 0.448285 16.4437 0.517009 16.444C0.653748 16.4424 0.784567 16.3879 0.882014 16.292L3.48701 13.687H16.272C16.6832 13.6864 17.0774 13.5229 17.3681 13.2321C17.6589 12.9414 17.8225 12.5472 17.823 12.136V1.54998C17.8219 1.13914 17.6581 0.745454 17.3674 0.455132C17.0767 0.164809 16.6829 0.0015043 16.272 0.000976562ZM16.789 12.138C16.788 12.2748 16.7332 12.4057 16.6364 12.5024C16.5397 12.5991 16.4088 12.6539 16.272 12.655H3.27201C3.20329 12.6553 3.1353 12.6692 3.07201 12.696C3.01063 12.722 2.95468 12.7593 2.90702 12.806L1.03001 14.68V1.54998C1.03106 1.41319 1.08587 1.28229 1.1826 1.18556C1.27933 1.08883 1.41022 1.03402 1.54702 1.03297H16.268C16.4048 1.03402 16.5357 1.08883 16.6324 1.18556C16.7292 1.28229 16.784 1.41319 16.785 1.54998L16.789 12.138Z" fill="#2E89FF"/>
</g>
<defs>
<clipPath id="clip0_324_29">
<rect width="17.823" height="16.445" fill="white"/>
</clipPath>
</defs>
</svg>
