<svg width="146" height="146" viewBox="0 0 146 146" fill="none" xmlns="http://www.w3.org/2000/svg">
<path d="M30.8018 9.42522C28.3071 10.282 26.7195 11.7183 25.6864 14.087C24.5272 16.6573 24.8296 19.3536 26.6439 23.0326C27.1479 24.091 35.6903 37.8243 45.5935 53.5484L63.6107 82.1492L63.7367 107.474L63.8627 132.799L64.4423 134.059C65.6518 136.705 67.4157 137.839 70.2884 137.839C71.8255 137.839 72.4051 137.713 73.3627 137.209C74.7486 136.478 90.7247 123.097 92.287 121.333C93.7486 119.721 94.8825 117.503 95.4873 115.134C95.9661 113.295 95.9913 112.287 95.9913 97.7977V82.4012L114.16 53.5484C124.138 37.6732 132.706 23.8642 133.185 22.8562C135.05 18.9756 135.201 16.4305 133.79 13.583C132.933 11.8191 131.597 10.5592 129.607 9.65201L128.372 9.07243L80.242 9.02204C34.4556 8.97164 32.0365 8.97164 30.8018 9.42522ZM123.433 19.5804C123.282 19.9079 115.016 33.0618 105.088 48.8111C95.1597 64.5604 86.7937 77.941 86.4913 78.5457L85.9117 79.6041V95.933C85.9117 110.422 85.8613 112.363 85.5085 113.27C85.1809 114.101 84.047 115.185 79.5868 118.94C76.5881 121.51 74.043 123.601 73.9674 123.601C73.8918 123.601 73.8162 113.698 73.8162 101.603V79.6041L73.2619 78.5205C72.9343 77.941 64.5683 64.5604 54.6399 48.8111C44.7115 33.0618 36.4463 19.9079 36.2951 19.5804L35.9927 19.026H79.864H123.735L123.433 19.5804Z" fill="black"/>
<path d="M37.7755 95.2934H12.3745C10.025 95.2934 8.58739 97.8719 9.82254 99.8705L21.4089 118.619C22.5259 120.426 25.1158 120.532 26.3761 118.821L40.1907 100.073C41.6502 98.0922 40.2359 95.2934 37.7755 95.2934Z" fill="black" stroke="black"/>
</svg>
