<svg width="18" height="18" viewBox="0 0 18 18" fill="none" xmlns="http://www.w3.org/2000/svg">
<g clip-path="url(#clip0_533_1656)">
<path d="M5.54337 8.92822C4.10337 8.20822 3.13137 6.76822 3.13137 5.04022C3.13137 2.66422 5.07537 0.720215 7.45137 0.720215C9.82737 0.720215 11.7714 2.66422 11.7714 5.04022C11.7714 7.38022 9.93537 9.28821 7.59537 9.36021H7.55937C3.99537 9.36021 1.07937 12.2762 1.07937 15.8402C1.07937 16.0562 0.935375 16.2002 0.719375 16.2002C0.503375 16.2002 0.359375 16.0562 0.359375 15.8402C0.359375 12.5642 2.55537 9.79222 5.54337 8.92822ZM7.45137 8.64022C9.43137 8.64022 11.0514 7.02022 11.0514 5.04022C11.0514 3.06022 9.43137 1.44021 7.45137 1.44021C5.47137 1.44021 3.85137 3.06022 3.85137 5.04022C3.85137 7.02022 5.47137 8.64022 7.45137 8.64022ZM17.3154 11.0162L17.3874 11.1962L16.5234 12.2402C16.3794 12.4202 16.3794 12.7082 16.5234 12.8882L17.3874 13.8962L17.3154 14.0762C17.1354 14.5802 16.8834 15.0842 16.5234 15.4802L16.3794 15.6242L15.0474 15.4082C14.8314 15.3722 14.5794 15.5162 14.5074 15.7322L14.0394 17.0282L13.8594 17.0642C13.1754 17.2082 12.4914 17.2082 11.8074 17.0642L11.5914 17.0282L11.1594 15.7682C11.0874 15.5522 10.8354 15.4082 10.6194 15.4442L9.25137 15.6602L9.10737 15.5162C8.92737 15.3362 8.78337 15.1202 8.67537 14.9042C8.53137 14.6522 8.38737 14.3642 8.31537 14.0762L8.24337 13.8962L9.14337 12.8882C9.28737 12.7082 9.28737 12.4202 9.14337 12.2762L8.27937 11.2322L8.35137 11.0522C8.53137 10.5122 8.81937 10.0442 9.17937 9.61222L9.32337 9.46822L10.6194 9.68421C10.8354 9.72021 11.0874 9.57621 11.1954 9.36021L11.6634 8.10022L11.8434 8.06422C12.4914 7.92022 13.1754 7.92022 13.8594 8.06422L14.0754 8.10022L14.5074 9.32422C14.5794 9.54022 14.8314 9.72021 15.0834 9.68421L16.4154 9.50422L16.5594 9.64822C16.7394 9.86422 16.8834 10.0442 16.9914 10.2962C17.0994 10.4762 17.2074 10.7642 17.3154 11.0162ZM16.3074 10.5842C16.2354 10.4402 16.1634 10.3322 16.0554 10.1882L15.1194 10.2962C14.5434 10.3682 13.9674 10.0082 13.7874 9.46822L13.4994 8.64022C13.0674 8.56822 12.6354 8.56822 12.2034 8.64022L11.8794 9.50422C11.6994 10.0442 11.0874 10.4042 10.5114 10.2962L9.61137 10.1522C9.39537 10.4042 9.25137 10.7282 9.10737 11.0162L9.71938 11.7362C10.0794 12.1682 10.0794 12.8522 9.71938 13.2842L9.10737 14.0042C9.17937 14.1842 9.25137 14.3282 9.35937 14.5082C9.43137 14.6522 9.50337 14.7602 9.61137 14.8682L10.5834 14.7242C11.1594 14.6522 11.7354 15.0122 11.9154 15.5522L12.2034 16.4162C12.6354 16.4882 13.1034 16.4882 13.5354 16.4162L13.8594 15.5162C14.0394 14.9762 14.6514 14.6162 15.1914 14.7242L16.0914 14.8682C16.2714 14.6162 16.4514 14.3282 16.5594 14.0042L15.9834 13.3202C15.6234 12.8882 15.5874 12.2042 15.9474 11.7722L16.5594 11.0522C16.4874 10.9082 16.4154 10.7642 16.3074 10.5842ZM12.8514 14.1842C11.9514 14.1842 11.2314 13.4642 11.2314 12.5642C11.2314 11.6642 11.9514 10.9442 12.8514 10.9442C13.7514 10.9442 14.4714 11.6642 14.4714 12.5642C14.4714 13.4642 13.7154 14.1842 12.8514 14.1842ZM12.8514 13.4642C13.3554 13.4642 13.7514 13.0682 13.7514 12.5642C13.7514 12.0602 13.3554 11.6642 12.8514 11.6642C12.3474 11.6642 11.9514 12.0602 11.9514 12.5642C11.9514 13.0682 12.3474 13.4642 12.8514 13.4642Z" fill="#2E89FF"/>
</g>
<defs>
<clipPath id="clip0_533_1656">
<rect width="18" height="18" fill="white"/>
</clipPath>
</defs>
</svg>
