<svg xmlns="http://www.w3.org/2000/svg" width="21.237" height="17.415" viewBox="0 0 21.237 17.415">
  <g id="Input_Data" data-name="Input Data" transform="translate(0.25 0.25)">
    <path id="Path_41" data-name="Path 41" d="M109.2,75.29v-14.5a2.418,2.418,0,0,1,2.411-2.411h15.915a2.418,2.418,0,0,1,2.411,2.411v14.5Zm18.326-15.95H111.613a1.451,1.451,0,0,0-1.447,1.447v13.5h18.808v-13.5A1.451,1.451,0,0,0,127.528,59.34Z" transform="translate(-109.202 -58.376)" fill="#2e89ff" stroke="#2e89ff" stroke-width="0.5"/>
    <path id="Path_42" data-name="Path 42" d="M183.787,259.095,180.17,256.2a.468.468,0,0,1-.072-.675l.072-.072,3.617-2.894.6.747-3.159,2.508,3.159,2.532Z" transform="translate(-176.939 -247.268)" fill="#2e89ff" stroke="#2e89ff" stroke-width="0.5"/>
    <path id="Path_43" data-name="Path 43" d="M414.443,259.119l-.6-.747L417,255.839l-3.159-2.532.6-.747,3.617,2.894a.468.468,0,0,1,.072.675l-.072.072Z" transform="translate(-400.723 -247.292)" fill="#2e89ff" stroke="#2e89ff" stroke-width="0.5"/>
    <path id="Path_44" data-name="Path 44" d="M307.338,220.211l-2.571-10.045-.934.239L306.4,220.45Z" transform="translate(-295.451 -206.798)" fill="#2e89ff" stroke="#2e89ff" stroke-width="0.5"/>
  </g>
</svg>
