<svg
  xmlns="http://www.w3.org/2000/svg"
  viewBox="0 0 24 24"
  width="24"
  height="24"
  fill="currentColor"
>
  <!-- Your SVG paths or shapes go here -->
  <!-- Example: -->
  <path d="M12 2c-4.42 0-8 3.58-8 8 0 5.25 8 14 8 14s8-8.75 8-14c0-4.42-3.58-8-8-8zm0 11c-2.22 0-4-1.78-4-4 0-2.22 1.78-4 4-4s4 1.78 4 4c0 2.22-1.78 4-4 4zm0-7c-1.1 0-2 .9-2 2s.9 2 2 2 2-.9 2-2-.9-2-2-2zm-4.36 8.73c-.1-.29-.16-.6-.16-.93 0-1.66 1.34-3 3-3 .33 0 .64.06.93.16.19-.67.51-1.29.95-1.82-1.08-.39-2.3-.24-3.22.64-1.14 1.14-1.46 2.83-.79 4.31zm5.56.79c-.79.79-1.96 1.03-3.04.56-.61-.24-1.15-.64-1.58-1.13-.43-.49-.75-1.05-.94-1.67-.39-1.35-.22-2.82.54-4.04 1.41-2.36 4.63-2.84 6.63-.84.57.57.91 1.35.99 2.18-.58.21-1.11.54-1.54.96z" />
</svg>