<svg xmlns="http://www.w3.org/2000/svg" width="24.827" height="24.818" viewBox="0 0 24.827 24.818">
  <g id="Pie-chart" transform="translate(0)">
    <path id="Path_63" data-name="Path 63" d="M108.865,39.062a1.074,1.074,0,0,0,1.078-1.05V29.776a1,1,0,0,0-.166-.553,1.13,1.13,0,0,0-1.133-.47,4.4,4.4,0,0,0-.58.138,12.779,12.779,0,0,0-9.451,8.733,1.634,1.634,0,0,0-.055.387,1.05,1.05,0,0,0,1.05,1.05Z" transform="translate(-98.543 -28.725)" fill="#2d3a5d"/>
    <path id="Path_64" data-name="Path 64" d="M111.726,29.544V39.962a1,1,0,0,1-1.022.995H99.345a.93.93,0,0,0-1.022.663,1.955,1.955,0,0,0,0,.8,10.776,10.776,0,0,0,.249,1.3,12.6,12.6,0,0,0,10.944,9.59c.387.028.774.055,1.188.055a12.413,12.413,0,0,0,6.6-1.907,12.671,12.671,0,0,0,5.168-14.592,12.5,12.5,0,0,0-7.9-7.9c-.857-.3-2.846-.995-2.846.58Z" transform="translate(-98.281 -28.548)" fill="#2d3a5d"/>
  </g>
</svg>
