<svg xmlns="http://www.w3.org/2000/svg" width="17.694" height="17.66" viewBox="0 0 17.694 17.66">
  <g id="Templates" transform="translate(-245.649 -170.05)">
    <path id="Path_31" data-name="Path 31" d="M261.347,170.8H247.611a1.214,1.214,0,0,0-1.212,1.212v13.736a1.214,1.214,0,0,0,1.212,1.212h13.736a1.214,1.214,0,0,0,1.212-1.212V172.012a1.214,1.214,0,0,0-1.212-1.212Zm.4,1.212v5.252h-8.08v-5.656h7.676a.4.4,0,0,1,.4.4Zm-14.544,13.736V172.012a.4.4,0,0,1,.4-.4h5.252v14.544h-5.252a.4.4,0,0,1-.4-.4Zm14.14.4h-7.676v-8.08h8.08v7.676a.4.4,0,0,1-.4.4Z" fill="#222d4b" stroke="#222d4b" stroke-width="1.5"/>
  </g>
</svg>
