<svg xmlns="http://www.w3.org/2000/svg" width="16.028" height="16.046" viewBox="0 0 16.028 16.046">
  <g id="Publish" transform="translate(-87.252 -28)">
    <path id="Path_72" data-name="Path 72" d="M112.483,63.467a.6.6,0,0,0-.605.605V71.41a.122.122,0,0,1-.125.125h-12.4a.122.122,0,0,1-.125-.125v-12.4a.122.122,0,0,1,.125-.125h7.337a.605.605,0,1,0,0-1.211H99.357A1.353,1.353,0,0,0,98,59.033v12.4a1.353,1.353,0,0,0,1.353,1.353h12.4a1.353,1.353,0,0,0,1.353-1.353V64.073a.627.627,0,0,0-.623-.605Z" transform="translate(-10.752 -28.735)" fill="#fff"/>
    <path id="Path_73" data-name="Path 73" d="M260.153,37.848a.635.635,0,0,0,0,.873.579.579,0,0,0,.427.178.552.552,0,0,0,.427-.178l7.284-7.284,1.3,1.3L270.856,28l-4.719,1.265,1.3,1.3Z" transform="translate(-167.576 0)" fill="#fff"/>
  </g>
</svg>
