<svg xmlns="http://www.w3.org/2000/svg" width="25.173" height="17.75" viewBox="0 0 25.173 17.75">
  <g id="Saved_Templates" data-name="Saved Templates" transform="translate(-103.251 -198.25)">
    <path id="Subtraction_2" data-name="Subtraction 2" d="M-6944.495,16.16h-4.294a1.213,1.213,0,0,1-1.21-1.212V1.212A1.213,1.213,0,0,1-6948.789,0h10.828a2.987,2.987,0,0,0-.281.23,3.314,3.314,0,0,0-.576.577h-3.911V6.464h2.772c.047.266.106.538.175.808h-2.947V13.3a3.134,3.134,0,0,0-.808.778V.808h-5.253a.4.4,0,0,0-.4.4V14.948a.4.4,0,0,0,.4.4h4.566c-.1.246-.189.517-.272.807Z" transform="translate(7054 199)" fill="#2e89ff" stroke="#222d4b" stroke-width="1.5"/>
    <g id="noun_profile_1325966" transform="translate(98.404 186.368)">
      <path id="Path_106" data-name="Path 106" d="M18.462,25.769c-.454.145-.888.289-1.219.434-1.487.723-1.281,2.954-1.281,3.057a.423.423,0,0,0,.413.372H29.594a.423.423,0,0,0,.413-.372c0-.1.227-2.334-1.26-3.057h0a9.115,9.115,0,0,0-1.219-.434c-1.033-.33-2.313-.723-2.54-1.487a1.261,1.261,0,0,1,.351-.764A5.906,5.906,0,0,0,26.5,19.883v-.021c0-.083-.165-2.231-1.384-3.139A3.02,3.02,0,0,0,22.985,16h-.021a3.132,3.132,0,0,0-2.107.7c-1.239.909-1.384,3.057-1.384,3.139v.021A5.906,5.906,0,0,0,20.63,23.5a1.363,1.363,0,0,1,.351.764C20.775,25.047,19.494,25.439,18.462,25.769Z" fill="#222d4b"/>
    </g>
  </g>
</svg>
