<svg width="22" height="25" viewBox="0 0 22 25" fill="none" xmlns="http://www.w3.org/2000/svg">
<path d="M10.6368 1.27798V2.53538L11.8942 2.77488C13.3112 3.0543 14.8281 3.69298 16.0855 4.57116L16.9637 5.16992L17.8418 4.27178L18.72 3.37364L17.9217 2.67509C16.804 1.73703 14.5886 0.699181 12.8921 0.319967C10.5968 -0.198959 10.6368 -0.218917 10.6368 1.27798Z" fill="#7E8496"/>
<path d="M1.53682 3.45041L0 4.9074L1.03785 5.64587L2.0757 6.4043L3.21334 5.36645C3.83206 4.8076 4.37095 4.26872 4.41086 4.18889C4.47074 4.02922 3.29318 1.99343 3.15347 1.99343C3.11355 1.99343 2.39504 2.65207 1.53682 3.45041Z" fill="#7E8496"/>
<path d="M8.28261 3.5922C7.10505 3.87162 5.84766 4.4105 5.84766 4.65001C5.84766 4.78972 6.12708 5.30864 6.44642 5.82757L7.02522 6.76562L7.78365 6.4862C8.20278 6.32653 8.78158 6.16687 9.10092 6.08703C9.61984 5.98724 9.6398 5.92736 9.6398 4.68992C9.6398 3.27286 9.6398 3.27286 8.28261 3.5922Z" fill="#7E8496"/>
<path d="M10.6368 4.6884C10.6368 5.92584 10.6568 5.98572 11.1956 6.10547C13.4909 6.58448 14.6086 7.40278 16.1653 9.75791C16.2252 9.8577 18.6203 8.95956 18.6203 8.81985C18.6203 8.75997 18.3408 8.28096 18.0215 7.76204C16.7442 5.78613 14.6684 4.30919 12.2934 3.69047C10.5969 3.25138 10.6368 3.21146 10.6368 4.6884Z" fill="#7E8496"/>
<path d="M18.6011 4.52988C17.5234 5.7274 17.5234 5.62761 18.5413 7.1245C19.0801 7.90289 19.5991 8.46174 19.7587 8.42182C19.9184 8.3819 20.4373 8.18231 20.9363 7.98273L21.8344 7.58355L21.2955 6.58562C20.7367 5.54777 19.4993 3.99099 19.2398 3.99099C19.16 3.99099 18.8805 4.2305 18.6011 4.52988Z" fill="#7E8496"/>
<path d="M3.81477 5.94895L2.79688 6.90697L3.83473 7.6654L4.87258 8.42383L5.41146 7.96478C5.71084 7.70532 6.03018 7.4259 6.12997 7.34606C6.28964 7.22631 5.152 4.99094 4.93245 4.99094C4.87258 4.99094 4.37361 5.43003 3.81477 5.94895Z" fill="#7E8496"/>
<path d="M8.78147 7.0052C6.44631 7.54408 4.59015 9.59983 4.31073 11.935L4.21094 12.873L5.46833 12.7733L6.70577 12.6735L7.00515 11.8152C7.34445 10.7973 8.2825 9.79941 9.06089 9.63974C9.63969 9.53995 9.63969 9.50003 9.63969 8.1628C9.63969 7.40437 9.61973 6.78566 9.59978 6.80561C9.55986 6.82557 9.2006 6.90541 8.78147 7.0052Z" fill="#7E8496"/>
<path d="M10.6367 8.20012C10.6367 9.33777 10.6966 9.57727 10.9561 9.57727C11.5947 9.57727 12.6126 10.3956 13.0118 11.2538C13.5108 12.2717 13.5307 13.09 13.1116 14.1877L12.7723 15.006L13.6904 15.9042L14.5885 16.8223L15.2073 15.7445C17.2031 12.2517 15.327 7.88078 11.455 7.0026L10.6367 6.82298V8.20012Z" fill="#7E8496"/>
<path d="M1.89332 8.33993C1.31452 9.39773 0.855469 11.0942 0.855469 12.2119C0.855469 13.13 0.875427 13.1699 1.41431 13.1699C1.71369 13.1699 2.27253 13.11 2.67171 13.0502C3.39022 12.9304 3.41018 12.9105 3.50997 11.8726C3.56985 11.2938 3.80935 10.4356 4.04885 9.97654C4.28836 9.49753 4.40811 9.0784 4.30832 8.99856C4.20852 8.93869 3.72952 8.59939 3.23055 8.24013L2.31245 7.60145L1.89332 8.33993Z" fill="#7E8496"/>
<path d="M17.6265 10.1571L16.7484 10.5164L16.7284 12.4923C16.7284 14.2287 16.6685 14.6079 16.1895 15.5659C15.8901 16.1647 15.5309 16.8233 15.3912 17.0029C15.1716 17.3023 15.2515 17.4819 16.0298 18.2603C16.8681 19.0986 16.928 19.1385 17.2673 18.8192C17.4868 18.6395 18.0257 17.7214 18.4848 16.8033C19.2232 15.2865 19.323 14.9671 19.3829 13.3106C19.4627 11.3945 19.1833 9.77789 18.7642 9.79785C18.6245 9.79785 18.1255 9.95752 17.6265 10.1571Z" fill="#7E8496"/>
<path d="M4.51304 13.6902C3.99411 13.9097 5.17167 16.3247 6.2694 17.2428C6.60869 17.5222 6.94799 17.7617 7.02783 17.7617C7.10766 17.7617 7.40704 17.2628 7.70642 16.644L8.26526 15.5263L7.64655 14.8478C7.32721 14.4685 7.04779 14.0294 7.04779 13.8698C7.04779 13.6303 6.78832 13.5704 5.91014 13.5904C5.27146 13.5904 4.65275 13.6502 4.51304 13.6902Z" fill="#7E8496"/>
<path d="M11.632 15.6646C11.3526 15.8243 10.6341 15.944 10.0353 15.964H8.91761L8.37873 17.0617L7.83984 18.1594L8.37873 18.3989C9.79579 18.9578 12.8295 18.4388 13.6079 17.4808C13.8674 17.1814 13.8075 17.0417 13.0091 16.2633C12.1709 15.4251 12.111 15.4051 11.632 15.6646Z" fill="#7E8496"/>
<path d="M13.832 18.359C13.5526 18.5785 13.0337 18.8579 12.6545 18.9777C11.9958 19.1972 11.9958 19.2172 12.1156 20.1752C12.2753 21.4127 12.415 21.752 12.7143 21.752C13.0536 21.752 15.2092 20.6542 15.8279 20.1752L16.3269 19.776L15.4287 18.8779C14.9497 18.359 14.4907 17.9598 14.4308 17.9598C14.3709 17.9598 14.1114 18.1394 13.832 18.359Z" fill="#7E8496"/>
<path d="M6.86438 20.1171L6.26562 21.3146L7.38331 21.6539C8.44112 21.9932 11.2752 22.1728 11.5148 21.9333C11.5946 21.8734 11.5148 21.2946 11.375 20.636C11.1355 19.6181 11.0357 19.4584 10.6765 19.5183C10.2374 19.5782 8.4012 19.2788 7.80244 19.0592C7.54298 18.9594 7.34339 19.179 6.86438 20.1171Z" fill="#7E8496"/>
<path d="M15.9299 21.0554C15.391 21.4546 14.433 21.9535 13.7943 22.193C13.1556 22.4126 12.6367 22.6521 12.6367 22.7319C12.6567 22.7918 12.7764 23.3506 12.9161 23.9494C13.1357 24.9274 13.2155 25.0471 13.6546 24.9872C14.3532 24.9074 17.2073 23.4504 18.0256 22.7718L18.7241 22.1731L17.826 21.255L16.9278 20.3568L15.9299 21.0554Z" fill="#7E8496"/>
</svg>
