<svg width="20" height="23" viewBox="0 0 20 23" fill="none" xmlns="http://www.w3.org/2000/svg">
<path d="M1 18.9996V3.77148C1 2.11463 2.34314 0.771484 4 0.771484H11.9784C12.8151 0.771484 13.6139 1.12093 14.1817 1.73547L17.4875 5.31285C17.9997 5.86715 18.2841 6.59414 18.2841 7.34887V18.9996C18.2841 20.6564 16.941 21.9996 15.2841 21.9996H4C2.34315 21.9996 1 20.6564 1 18.9996Z" stroke="#2E89FF" stroke-width="1.5"/>
<path d="M19 8L11.5625 0V8H19Z" fill="#2E89FF"/>
<path d="M4.8418 14.1668V12.0791C4.8418 11.803 5.06565 11.5791 5.3418 11.5791H13.56C13.8361 11.5791 14.06 11.803 14.06 12.0791V14.1668C14.06 14.443 13.8361 14.6668 13.56 14.6668H5.3418C5.06565 14.6668 4.8418 14.443 4.8418 14.1668Z" stroke="#2E89FF"/>
<path d="M4.8418 18.0262V15.9385C4.8418 15.6623 5.06565 15.4385 5.3418 15.4385H13.56C13.8361 15.4385 14.06 15.6623 14.06 15.9385V18.0262C14.06 18.3023 13.8361 18.5262 13.56 18.5262H5.3418C5.06565 18.5262 4.8418 18.3023 4.8418 18.0262Z" stroke="#2E89FF"/>
</svg>
